<svg width="396" height="103" viewBox="0 0 396 103" fill="none" xmlns="http://www.w3.org/2000/svg">
<path d="M37.25 30L72.25 49.8333V80.1667L37.25 100L2.25 80.1667V49.8333L37.25 30Z" stroke="#1F2328" stroke-width="4.5"/>
<path d="M25.5833 53.3333L39.5833 65L25.5833 76.6667" stroke="#1F2328" stroke-width="4.5" stroke-linecap="round" stroke-linejoin="round"/>
<path d="M44.25 76.6667H58.25" stroke="#1F2328" stroke-width="4.5" stroke-linecap="round"/>
<path d="M101.318 23.1818H119.523L138.75 70.0909H139.568L158.795 23.1818H177V93H162.682V47.5568H162.102L144.034 92.6591H134.284L116.216 47.3864H115.636V93H101.318V23.1818ZM212.548 94.0227C207.253 94.0227 202.673 92.8977 198.81 90.6477C194.969 88.375 192.003 85.2159 189.912 81.1705C187.821 77.1023 186.776 72.3864 186.776 67.0227C186.776 61.6136 187.821 56.8864 189.912 52.8409C192.003 48.7727 194.969 45.6136 198.81 43.3636C202.673 41.0909 207.253 39.9545 212.548 39.9545C217.844 39.9545 222.412 41.0909 226.253 43.3636C230.116 45.6136 233.094 48.7727 235.185 52.8409C237.276 56.8864 238.321 61.6136 238.321 67.0227C238.321 72.3864 237.276 77.1023 235.185 81.1705C233.094 85.2159 230.116 88.375 226.253 90.6477C222.412 92.8977 217.844 94.0227 212.548 94.0227ZM212.616 82.7727C215.026 82.7727 217.037 82.0909 218.651 80.7273C220.264 79.3409 221.48 77.4545 222.298 75.0682C223.139 72.6818 223.56 69.9659 223.56 66.9205C223.56 63.875 223.139 61.1591 222.298 58.7727C221.48 56.3864 220.264 54.5 218.651 53.1136C217.037 51.7273 215.026 51.0341 212.616 51.0341C210.185 51.0341 208.139 51.7273 206.48 53.1136C204.844 54.5 203.605 56.3864 202.764 58.7727C201.946 61.1591 201.537 63.875 201.537 66.9205C201.537 69.9659 201.946 72.6818 202.764 75.0682C203.605 77.4545 204.844 79.3409 206.48 80.7273C208.139 82.0909 210.185 82.7727 212.616 82.7727ZM267.06 93.8523C263.082 93.8523 259.48 92.8295 256.253 90.7841C253.048 88.7159 250.503 85.6818 248.616 81.6818C246.753 77.6591 245.821 72.7273 245.821 66.8864C245.821 60.8864 246.787 55.8977 248.719 51.9205C250.651 47.9205 253.219 44.9318 256.423 42.9545C259.651 40.9545 263.185 39.9545 267.026 39.9545C269.957 39.9545 272.401 40.4545 274.355 41.4545C276.332 42.4318 277.923 43.6591 279.128 45.1364C280.355 46.5909 281.287 48.0227 281.923 49.4318H282.366V23.1818H296.855V93H282.537V84.6136H281.923C281.241 86.0682 280.276 87.5114 279.026 88.9432C277.798 90.3523 276.196 91.5227 274.219 92.4545C272.264 93.3864 269.878 93.8523 267.06 93.8523ZM271.662 82.2955C274.003 82.2955 275.98 81.6591 277.594 80.3864C279.23 79.0909 280.48 77.2841 281.344 74.9659C282.23 72.6477 282.673 69.9318 282.673 66.8182C282.673 63.7045 282.241 61 281.378 58.7045C280.514 56.4091 279.264 54.6364 277.628 53.3864C275.991 52.1364 274.003 51.5114 271.662 51.5114C269.276 51.5114 267.264 52.1591 265.628 53.4545C263.991 54.75 262.753 56.5455 261.912 58.8409C261.071 61.1364 260.651 63.7955 260.651 66.8182C260.651 69.8636 261.071 72.5568 261.912 74.8977C262.776 77.2159 264.014 79.0341 265.628 80.3523C267.264 81.6477 269.276 82.2955 271.662 82.2955ZM308.795 93V40.6364H323.318V93H308.795ZM316.091 33.8864C313.932 33.8864 312.08 33.1705 310.534 31.7386C309.011 30.2841 308.25 28.5455 308.25 26.5227C308.25 24.5227 309.011 22.8068 310.534 21.375C312.08 19.9205 313.932 19.1932 316.091 19.1932C318.25 19.1932 320.091 19.9205 321.614 21.375C323.159 22.8068 323.932 24.5227 323.932 26.5227C323.932 28.5455 323.159 30.2841 321.614 31.7386C320.091 33.1705 318.25 33.8864 316.091 33.8864ZM347.088 40.6364L356.702 58.9432L366.554 40.6364H381.452L366.281 66.8182L381.861 93H367.031L356.702 74.8977L346.543 93H331.543L347.088 66.8182L332.088 40.6364H347.088Z" fill="#1F2328"/>
</svg>
